<svg id="Component_76_1" data-name="Component 76 – 1" xmlns="http://www.w3.org/2000/svg" xmlns:xlink="http://www.w3.org/1999/xlink" width="176.891" height="72" viewBox="0 0 176.891 72">
  <defs>
    <clipPath id="clip-path">
      <rect id="Rectangle_128" data-name="Rectangle 128" width="176.891" height="72" fill="#fff"/>
    </clipPath>
  </defs>
  <g id="Group_46" data-name="Group 46" clip-path="url(#clip-path)">
    <path id="Path_196" data-name="Path 196" d="M69.789,12.985H67.927a.585.585,0,0,1-.626-.467l-.609-2.058H62.217l-.609,2.058a.6.6,0,0,1-.626.467H59.139c-.394,0-.591-.234-.448-.645L62.594.922A.615.615,0,0,1,63.22.455h2.452a.634.634,0,0,1,.644.467L70.254,12.34c.125.411-.073.645-.465.645m-3.777-4.8L64.436,2.854,62.88,8.188Z" transform="translate(26.583 0.207)" fill="#fff"/>
    <path id="Path_197" data-name="Path 197" d="M81.2,6.308v5.084a.509.509,0,0,1-.555.555h-1.61a.514.514,0,0,1-.573-.555V6.506a1.359,1.359,0,0,0-1.343-1.54c-.878,0-1.431.68-1.431,1.754v4.672a.509.509,0,0,1-.555.555H73.52a.515.515,0,0,1-.574-.555V6.506A1.358,1.358,0,0,0,71.6,4.965c-.859,0-1.414.663-1.433,1.7l.019,4.726a.5.5,0,0,1-.555.555H68.024a.5.5,0,0,1-.554-.555V3.551A.5.5,0,0,1,68.024,3h1.289a.508.508,0,0,1,.555.554v.841a2.773,2.773,0,0,1,2.667-1.647,2.887,2.887,0,0,1,2.739,1.647A2.88,2.88,0,0,1,78.03,2.746c1.952,0,3.168,1.4,3.168,3.562" transform="translate(30.583 1.245)" fill="#fff"/>
    <path id="Path_198" data-name="Path 198" d="M77.9,7.4c0-2.811,1.628-4.653,4.528-4.653,2.665,0,4.277,1.556,4.438,4.761a.486.486,0,0,1-.536.573H80.8c.161,1.324.841,2.129,2,2.129a1.553,1.553,0,0,0,1.414-.732.647.647,0,0,1,.7-.34l1.253.214c.376.054.555.305.4.663a4.017,4.017,0,0,1-3.956,2.165A4.391,4.391,0,0,1,77.9,7.4m6.085-.841c-.142-1.2-.644-1.862-1.556-1.862-.932,0-1.487.645-1.629,1.862Z" transform="translate(35.311 1.246)" fill="#fff"/>
    <path id="Path_199" data-name="Path 199" d="M90.79,3.207V4.818a.4.4,0,0,1-.411.446h-.108a2.331,2.331,0,0,0-2.488,2.488l.017,3.633a.5.5,0,0,1-.555.555h-1.61a.5.5,0,0,1-.555-.555V3.547a.5.5,0,0,1,.555-.555h1.182a.509.509,0,0,1,.555.555l-.019,1.485a3.007,3.007,0,0,1,2.828-2.273h.144a.411.411,0,0,1,.465.448" transform="translate(38.565 1.251)" fill="#fff"/>
    <path id="Path_200" data-name="Path 200" d="M89.71,1.539a1.531,1.531,0,1,1,1.54,1.54,1.529,1.529,0,0,1-1.54-1.54m2.346,11.652H90.444a.5.5,0,0,1-.554-.555V4.8a.5.5,0,0,1,.554-.555h1.612a.5.5,0,0,1,.555.555v7.839a.5.5,0,0,1-.555.555" transform="translate(40.664 0)" fill="#fff"/>
    <path id="Path_201" data-name="Path 201" d="M97.217,2.747a3.987,3.987,0,0,1,4.1,2.738c.126.359-.071.591-.429.663l-1.45.233a.578.578,0,0,1-.68-.411,1.487,1.487,0,0,0-1.414-1.02c-1.02,0-1.664.949-1.664,2.505,0,1.539.626,2.505,1.7,2.505A1.453,1.453,0,0,0,98.829,8.8a.554.554,0,0,1,.644-.448l1.468.215a.51.51,0,0,1,.448.68,3.935,3.935,0,0,1-4.135,2.917c-2.739,0-4.44-1.808-4.44-4.707s1.7-4.707,4.4-4.707" transform="translate(42.071 1.246)" fill="#fff"/>
    <path id="Path_202" data-name="Path 202" d="M107.7,6.021v5.37a.5.5,0,0,1-.555.555h-1.272a.5.5,0,0,1-.554-.555v-.626a3.191,3.191,0,0,1-2.882,1.414c-1.881,0-3.061-1.02-3.061-2.649,0-1.754,1.378-2.846,3.651-2.846a6.117,6.117,0,0,1,1.987.3v-.93a1.208,1.208,0,0,0-1.234-1.378,1.318,1.318,0,0,0-1.2.68c-.2.286-.358.411-.68.375l-1.556-.25c-.376-.071-.555-.323-.394-.68A3.933,3.933,0,0,1,103.8,2.747c2.4,0,3.9,1.253,3.9,3.274m-2.686,2.757v-.34a3.679,3.679,0,0,0-1.449-.3c-.914,0-1.469.411-1.469,1.109,0,.663.484,1.074,1.307,1.074a1.459,1.459,0,0,0,1.612-1.539" transform="translate(45.046 1.246)" fill="#fff"/>
    <path id="Path_203" data-name="Path 203" d="M114.744,6.308v5.084a.5.5,0,0,1-.555.555h-1.61a.5.5,0,0,1-.555-.555V6.523a1.408,1.408,0,0,0-1.432-1.558,1.542,1.542,0,0,0-1.5,1.719l.017,4.707a.5.5,0,0,1-.554.555H106.94a.5.5,0,0,1-.554-.555V3.551A.5.5,0,0,1,106.94,3h1.289a.508.508,0,0,1,.555.554v.824a2.877,2.877,0,0,1,2.755-1.629c1.952,0,3.2,1.4,3.2,3.562" transform="translate(48.223 1.245)" fill="#fff"/>
    <path id="Path_204" data-name="Path 204" d="M67.644,14.628v1.414a.522.522,0,0,1-.573.555H62.328v3.311h3.92a.5.5,0,0,1,.555.555v1.4a.514.514,0,0,1-.555.573H62.311v3.616a.508.508,0,0,1-.555.554H60.019a.5.5,0,0,1-.554-.554V14.628a.5.5,0,0,1,.554-.555h7.053a.514.514,0,0,1,.573.555" transform="translate(26.954 6.379)" fill="#fff"/>
    <path id="Path_205" data-name="Path 205" d="M65.462,21.071a4.672,4.672,0,1,1,9.343,0,4.672,4.672,0,1,1-9.343,0m6.48,0c0-1.539-.7-2.524-1.808-2.524s-1.808.985-1.808,2.524c0,1.558.7,2.524,1.808,2.524s1.808-.966,1.808-2.524" transform="translate(29.673 7.418)" fill="#fff"/>
    <path id="Path_206" data-name="Path 206" d="M81.108,17.091V24.93a.514.514,0,0,1-.573.555H79.3a.507.507,0,0,1-.554-.555v-.751A3.023,3.023,0,0,1,75.9,25.718c-1.879,0-3.061-1.145-3.061-3.508V17.091a.5.5,0,0,1,.555-.555h1.612a.5.5,0,0,1,.554.555v4.922a1.328,1.328,0,0,0,1.4,1.468c.859,0,1.414-.626,1.431-1.629l-.017-4.761a.509.509,0,0,1,.555-.555h1.61a.514.514,0,0,1,.573.555" transform="translate(33.017 7.496)" fill="#fff"/>
    <path id="Path_207" data-name="Path 207" d="M88.328,19.926V25.01a.5.5,0,0,1-.555.555h-1.61a.5.5,0,0,1-.555-.555V20.141a1.408,1.408,0,0,0-1.431-1.558,1.542,1.542,0,0,0-1.5,1.719l.017,4.707a.5.5,0,0,1-.554.555H80.524a.5.5,0,0,1-.554-.555v-7.84a.5.5,0,0,1,.554-.554h1.289a.508.508,0,0,1,.555.554v.824a2.879,2.879,0,0,1,2.757-1.629c1.95,0,3.2,1.4,3.2,3.562" transform="translate(36.249 7.418)" fill="#fff"/>
    <path id="Path_208" data-name="Path 208" d="M95.637,14.258V26.215a.5.5,0,0,1-.555.554H93.793a.5.5,0,0,1-.554-.554v-.949a3.233,3.233,0,0,1-2.918,1.718c-2.219,0-3.616-1.808-3.616-4.69,0-2.9,1.4-4.725,3.633-4.725a3.167,3.167,0,0,1,2.578,1.216V14.258a.5.5,0,0,1,.555-.554h1.61a.5.5,0,0,1,.555.554m-2.721,8.019c0-1.539-.644-2.524-1.664-2.524-1.039,0-1.683.985-1.683,2.524s.644,2.524,1.683,2.524c1.02,0,1.664-.985,1.664-2.524" transform="translate(39.302 6.212)" fill="#fff"/>
    <path id="Path_209" data-name="Path 209" d="M102.306,19.638v5.37a.5.5,0,0,1-.554.555h-1.272a.5.5,0,0,1-.554-.555v-.626A3.191,3.191,0,0,1,97.045,25.8c-1.879,0-3.062-1.02-3.062-2.649,0-1.754,1.379-2.846,3.652-2.846a6.132,6.132,0,0,1,1.988.3v-.93A1.21,1.21,0,0,0,98.386,18.3a1.319,1.319,0,0,0-1.2.68c-.2.286-.359.411-.68.375l-1.556-.25c-.376-.071-.554-.323-.392-.68A3.929,3.929,0,0,1,98.4,16.364c2.4,0,3.9,1.253,3.9,3.274M99.623,22.4v-.34a3.686,3.686,0,0,0-1.45-.3c-.914,0-1.469.411-1.469,1.109,0,.663.484,1.074,1.308,1.074A1.459,1.459,0,0,0,99.623,22.4" transform="translate(42.601 7.418)" fill="#fff"/>
    <path id="Path_210" data-name="Path 210" d="M106.414,24.561V25.67a.528.528,0,0,1-.573.574h-1.253c-1.879,0-3.043-1.057-3.043-2.739l-.017-4.081h-.519a.5.5,0,0,1-.555-.554l-.017-1.093a.508.508,0,0,1,.554-.555h.628l.734-1.789a.647.647,0,0,1,.661-.411h.663a.513.513,0,0,1,.573.554v1.647h1.414a.5.5,0,0,1,.555.555V18.87a.5.5,0,0,1-.555.554h-1.4v3.383a1.082,1.082,0,0,0,1.147,1.182h.429a.527.527,0,0,1,.573.573" transform="translate(45.526 6.81)" fill="#fff"/>
    <path id="Path_211" data-name="Path 211" d="M105.339,15.156a1.53,1.53,0,1,1,1.539,1.54,1.528,1.528,0,0,1-1.539-1.54m2.344,11.652h-1.612a.5.5,0,0,1-.554-.555V18.414a.5.5,0,0,1,.554-.555h1.612a.5.5,0,0,1,.555.555v7.839a.5.5,0,0,1-.555.555" transform="translate(47.748 6.173)" fill="#fff"/>
    <path id="Path_212" data-name="Path 212" d="M108.442,21.071a4.672,4.672,0,1,1,9.343,0,4.672,4.672,0,1,1-9.343,0m6.479,0c0-1.539-.7-2.524-1.808-2.524s-1.808.985-1.808,2.524c0,1.558.7,2.524,1.808,2.524s1.808-.966,1.808-2.524" transform="translate(49.155 7.418)" fill="#fff"/>
    <path id="Path_213" data-name="Path 213" d="M124.325,19.926V25.01a.5.5,0,0,1-.555.555h-1.61a.5.5,0,0,1-.555-.555V20.141a1.408,1.408,0,0,0-1.431-1.558,1.542,1.542,0,0,0-1.5,1.719l.017,4.707a.5.5,0,0,1-.554.555h-1.612a.5.5,0,0,1-.554-.555v-7.84a.5.5,0,0,1,.554-.554h1.289a.508.508,0,0,1,.555.554v.824a2.878,2.878,0,0,1,2.755-1.629c1.952,0,3.2,1.4,3.2,3.562" transform="translate(52.566 7.418)" fill="#fff"/>
    <path id="Path_214" data-name="Path 214" d="M74.741,36.688l1.77-.305a.613.613,0,0,1,.7.4,2.411,2.411,0,0,0,2.417,1.449c1.11,0,1.77-.448,1.77-1.253,0-2.488-6.765-1.36-6.765-5.746,0-2.505,2.058-3.722,4.617-3.722,2.524,0,4.081,1.235,4.656,2.953.106.358-.074.59-.449.663l-1.754.285a.586.586,0,0,1-.679-.392A1.964,1.964,0,0,0,79.162,29.8c-1.041,0-1.648.573-1.648,1.253,0,2.238,6.784,1.235,6.784,5.639,0,2.362-1.809,3.848-4.637,3.848-2.863,0-4.688-1.343-5.332-3.186-.126-.359.055-.591.413-.663" transform="translate(33.674 12.468)" fill="#fff"/>
    <path id="Path_215" data-name="Path 215" d="M90.43,30.708v7.839a.514.514,0,0,1-.573.555H88.622a.508.508,0,0,1-.555-.555V37.8a3.021,3.021,0,0,1-2.846,1.539c-1.879,0-3.061-1.145-3.061-3.508V30.708a.5.5,0,0,1,.555-.555h1.612a.5.5,0,0,1,.554.555V35.63a1.328,1.328,0,0,0,1.4,1.468c.859,0,1.414-.626,1.431-1.629l-.017-4.761a.509.509,0,0,1,.555-.555h1.61a.514.514,0,0,1,.573.555" transform="translate(37.242 13.668)" fill="#fff"/>
    <path id="Path_216" data-name="Path 216" d="M89.167,28.774a1.531,1.531,0,1,1,1.54,1.539,1.53,1.53,0,0,1-1.54-1.539m2.346,11.651H89.9a.5.5,0,0,1-.554-.555V32.031a.5.5,0,0,1,.554-.555h1.612a.5.5,0,0,1,.555.555V39.87a.5.5,0,0,1-.555.555" transform="translate(40.418 12.345)" fill="#fff"/>
    <path id="Path_217" data-name="Path 217" d="M96.674,29.981a3.987,3.987,0,0,1,4.1,2.738c.126.359-.071.591-.429.663l-1.45.233a.578.578,0,0,1-.68-.411,1.487,1.487,0,0,0-1.414-1.02c-1.02,0-1.664.949-1.664,2.505,0,1.539.626,2.505,1.7,2.505a1.453,1.453,0,0,0,1.45-1.163.554.554,0,0,1,.644-.448l1.468.215a.51.51,0,0,1,.448.68A3.935,3.935,0,0,1,96.711,39.4c-2.739,0-4.44-1.808-4.44-4.707s1.7-4.707,4.4-4.707" transform="translate(41.825 13.59)" fill="#fff"/>
    <path id="Path_218" data-name="Path 218" d="M99.032,28.774a1.53,1.53,0,1,1,1.539,1.539,1.529,1.529,0,0,1-1.539-1.539m2.344,11.651H99.764a.5.5,0,0,1-.554-.555V32.031a.5.5,0,0,1,.554-.555h1.612a.5.5,0,0,1,.555.555V39.87a.5.5,0,0,1-.555.555" transform="translate(44.89 12.345)" fill="#fff"/>
    <path id="Path_219" data-name="Path 219" d="M111.066,27.876V39.832a.5.5,0,0,1-.555.554h-1.288a.5.5,0,0,1-.555-.554v-.949A3.235,3.235,0,0,1,105.75,40.6c-2.219,0-3.614-1.808-3.614-4.688,0-2.9,1.4-4.726,3.633-4.726a3.165,3.165,0,0,1,2.577,1.218V27.876a.5.5,0,0,1,.555-.555h1.61a.5.5,0,0,1,.555.555m-2.721,8.018c0-1.539-.644-2.523-1.664-2.523-1.039,0-1.683.984-1.683,2.523s.644,2.524,1.683,2.524c1.02,0,1.664-.985,1.664-2.524" transform="translate(46.297 12.385)" fill="#fff"/>
    <path id="Path_220" data-name="Path 220" d="M109.389,34.634c0-2.811,1.628-4.653,4.528-4.653,2.667,0,4.277,1.556,4.438,4.761a.486.486,0,0,1-.538.573h-5.53c.161,1.325.841,2.131,2,2.131a1.554,1.554,0,0,0,1.414-.734.649.649,0,0,1,.7-.34l1.253.215c.375.054.554.3.394.661a4.015,4.015,0,0,1-3.956,2.165,4.391,4.391,0,0,1-4.707-4.778m6.085-.841c-.142-1.2-.644-1.862-1.556-1.862-.932,0-1.487.645-1.629,1.862Z" transform="translate(49.584 13.59)" fill="#fff"/>
    <path id="Path_221" data-name="Path 221" d="M69,44.815c0,2.524-1.789,4.135-4.635,4.135h-2.04V52.69a.509.509,0,0,1-.555.555H60.02a.5.5,0,0,1-.555-.555V41.272a.5.5,0,0,1,.555-.557h4.35c2.846,0,4.635,1.577,4.635,4.1m-2.988,0a1.744,1.744,0,0,0-1.95-1.772H62.329v3.579h1.737a1.761,1.761,0,0,0,1.95-1.808" transform="translate(26.954 18.456)" fill="#fff"/>
    <path id="Path_222" data-name="Path 222" d="M72.7,43.466v1.612a.4.4,0,0,1-.411.446H72.18a2.33,2.33,0,0,0-2.488,2.488l.017,3.633a.5.5,0,0,1-.554.555H67.544a.5.5,0,0,1-.555-.555V43.806a.5.5,0,0,1,.555-.555h1.182a.509.509,0,0,1,.555.555l-.019,1.485a3.007,3.007,0,0,1,2.828-2.273h.144a.411.411,0,0,1,.465.448" transform="translate(30.365 19.5)" fill="#fff"/>
    <path id="Path_223" data-name="Path 223" d="M71.177,47.659c0-2.811,1.628-4.653,4.528-4.653,2.667,0,4.277,1.556,4.438,4.761a.486.486,0,0,1-.536.573H74.076c.161,1.325.841,2.131,2,2.131a1.554,1.554,0,0,0,1.414-.734.648.648,0,0,1,.7-.34l1.253.215c.375.054.554.3.394.661a4.015,4.015,0,0,1-3.956,2.165,4.391,4.391,0,0,1-4.707-4.778m6.085-.841c-.142-1.2-.644-1.862-1.556-1.862-.932,0-1.487.645-1.629,1.862Z" transform="translate(32.263 19.494)" fill="#fff"/>
    <path id="Path_224" data-name="Path 224" d="M86.795,43.823l-2.524,7.839a.633.633,0,0,1-.644.465H80.887a.6.6,0,0,1-.626-.465l-2.523-7.856c-.108-.394.054-.626.465-.626h1.79a.574.574,0,0,1,.626.465L82.3,49.729l1.681-6.085a.574.574,0,0,1,.626-.465H86.33c.392,0,.573.233.465.644" transform="translate(35.223 19.573)" fill="#fff"/>
    <path id="Path_225" data-name="Path 225" d="M84.44,47.659c0-2.811,1.629-4.653,4.528-4.653,2.668,0,4.277,1.556,4.438,4.761a.485.485,0,0,1-.535.573H87.341c.161,1.325.84,2.131,2,2.131a1.554,1.554,0,0,0,1.414-.734.651.651,0,0,1,.7-.34l1.253.215c.374.054.552.3.392.661a4.015,4.015,0,0,1-3.956,2.165,4.391,4.391,0,0,1-4.707-4.778m6.086-.841c-.144-1.2-.644-1.862-1.558-1.862-.932,0-1.485.645-1.628,1.862Z" transform="translate(38.275 19.494)" fill="#fff"/>
    <path id="Path_226" data-name="Path 226" d="M99.978,46.568v5.084a.5.5,0,0,1-.555.554h-1.61a.5.5,0,0,1-.555-.554V46.783a1.408,1.408,0,0,0-1.431-1.558,1.541,1.541,0,0,0-1.5,1.718l.017,4.709a.5.5,0,0,1-.554.554H92.174a.5.5,0,0,1-.554-.554v-7.84a.5.5,0,0,1,.554-.555h1.289a.509.509,0,0,1,.555.555v.824a2.878,2.878,0,0,1,2.755-1.629c1.952,0,3.2,1.4,3.2,3.562" transform="translate(41.53 19.494)" fill="#fff"/>
    <path id="Path_227" data-name="Path 227" d="M104.1,51.2v1.109a.528.528,0,0,1-.573.574h-1.253c-1.879,0-3.043-1.057-3.043-2.739l-.017-4.081h-.52a.5.5,0,0,1-.554-.554l-.019-1.093a.509.509,0,0,1,.555-.555H99.3l.734-1.789a.65.65,0,0,1,.663-.411h.663a.513.513,0,0,1,.573.554v1.647h1.414a.5.5,0,0,1,.554.555v1.093a.5.5,0,0,1-.554.554h-1.4v3.383a1.082,1.082,0,0,0,1.145,1.182h.43a.527.527,0,0,1,.573.573" transform="translate(44.477 18.886)" fill="#fff"/>
    <path id="Path_228" data-name="Path 228" d="M103.023,41.8a1.531,1.531,0,1,1,1.54,1.539,1.53,1.53,0,0,1-1.54-1.539m2.346,11.651h-1.612a.5.5,0,0,1-.554-.555V45.056a.5.5,0,0,1,.554-.555h1.612a.5.5,0,0,1,.555.555V52.9a.5.5,0,0,1-.555.555" transform="translate(46.699 18.249)" fill="#fff"/>
    <path id="Path_229" data-name="Path 229" d="M106.127,47.713a4.672,4.672,0,1,1,9.343,0,4.672,4.672,0,1,1-9.343,0m6.479,0c0-1.539-.7-2.523-1.808-2.523s-1.806.984-1.806,2.523c0,1.558.7,2.524,1.806,2.524s1.808-.966,1.808-2.524" transform="translate(48.106 19.494)" fill="#fff"/>
    <path id="Path_230" data-name="Path 230" d="M122.01,46.568v5.084a.5.5,0,0,1-.555.554h-1.61a.5.5,0,0,1-.555-.554V46.783a1.408,1.408,0,0,0-1.431-1.558,1.541,1.541,0,0,0-1.5,1.718l.017,4.709a.5.5,0,0,1-.554.554h-1.612a.5.5,0,0,1-.554-.554v-7.84a.5.5,0,0,1,.554-.555h1.289a.509.509,0,0,1,.555.555v.824a2.877,2.877,0,0,1,2.755-1.629c1.952,0,3.2,1.4,3.2,3.562" transform="translate(51.517 19.494)" fill="#fff"/>
    <path id="Path_231" data-name="Path 231" d="M65.022,28.462h-.174a3.179,3.179,0,0,0-3.331,2.866l-.038.214H60.79a.485.485,0,0,0-.477.4l-.09.5a.485.485,0,0,0,.477.571h.514L60.685,36.3a.811.811,0,0,1-.95.764h-.349a.361.361,0,0,0-.408.33l-.246,1c-.052.3.4.6,1.027.6a2.726,2.726,0,0,0,2.869-2.4l.584-3.588h.827a.485.485,0,0,0,.477-.4l.09-.5a.485.485,0,0,0-.477-.57h-.653l.038-.214c.125-.666.528-.968.993-.968h.349a.485.485,0,0,0,.477-.4l.166-.929a.484.484,0,0,0-.477-.57" transform="translate(26.62 12.902)" fill="#fff"/>
    <path id="Path_232" data-name="Path 232" d="M66.827,30.478a3.76,3.76,0,0,0-3.645,3.066A2.477,2.477,0,0,0,65.759,36.6a3.759,3.759,0,0,0,3.67-3.055,2.482,2.482,0,0,0-2.6-3.066m.679,3.066a1.538,1.538,0,0,1-1.433,1.219,1,1,0,0,1-1.006-1.219,1.552,1.552,0,0,1,1.446-1.219.99.99,0,0,1,.993,1.219" transform="translate(28.616 13.816)" fill="#fff"/>
    <path id="Path_233" data-name="Path 233" d="M72.695,30.477a2.089,2.089,0,0,0-2.136,1.154l.158-.432a.484.484,0,0,0-.477-.571h-.91a.483.483,0,0,0-.477.4l-.86,4.887a.484.484,0,0,0,.478.568h1.011a.486.486,0,0,0,.478-.4l.257-1.519c.314-1.76.855-2.187,1.609-2.187a2.45,2.45,0,0,1,.517.045.486.486,0,0,0,.535-.292l.42-.969c.134-.307-.033-.682-.6-.682" transform="translate(30.817 13.815)" fill="#fff"/>
    <path id="Path_234" data-name="Path 234" d="M68.441,22.533a35.575,35.575,0,1,0,0,27.227,35.615,35.615,0,0,0,0-27.227m-48.9,20.253a17.35,17.35,0,1,1,22.668,9.39,17.233,17.233,0,0,1-22.668-9.39M48.022,6.095h0L43.379,17.3a20.262,20.262,0,0,0-15.61,0L23.126,6.095a32.315,32.315,0,0,1,24.9,0M5.537,23.7l11.195,4.637a20.255,20.255,0,0,0,0,15.61L5.523,48.594A32.42,32.42,0,0,1,5.537,23.7M23.126,66.2h0l4.652-11.23a20.238,20.238,0,0,0,15.6.02L48.022,66.2a32.315,32.315,0,0,1-24.9,0m42.5-17.6h0L54.417,43.951a20.255,20.255,0,0,0,0-15.61L65.626,23.7a32.315,32.315,0,0,1,0,24.9" transform="translate(0 0.26)" fill="#fff"/>
  </g>
</svg>
